<mxfile host="app.diagrams.net" modified="2021-05-22T04:45:46.343Z" agent="5.0 (Windows NT 10.0; Win64; x64) AppleWebKit/537.36 (KHTML, like Gecko) Chrome/90.0.4430.212 Safari/537.36" etag="4xP39S3Y_xN-uEyFLm3R" version="14.6.13" type="github">
  <diagram id="PdgDb_l4S8uLQHHRexF-" name="Page-1">
    <mxGraphModel dx="1378" dy="634" grid="1" gridSize="10" guides="1" tooltips="1" connect="1" arrows="1" fold="1" page="1" pageScale="1" pageWidth="827" pageHeight="1169" math="0" shadow="0">
      <root>
        <mxCell id="0" />
        <mxCell id="1" parent="0" />
        <mxCell id="1OxxOTyWAvwLGVjvytnG-1" value="&lt;font face=&quot;Times New Roman&quot; style=&quot;font-size: 14px&quot;&gt;Tissue&lt;/font&gt;" style="rounded=1;whiteSpace=wrap;html=1;" vertex="1" parent="1">
          <mxGeometry x="140" y="190" width="160" height="50" as="geometry" />
        </mxCell>
        <mxCell id="1OxxOTyWAvwLGVjvytnG-2" value="" style="shape=image;verticalLabelPosition=bottom;labelBackgroundColor=#ffffff;verticalAlign=top;aspect=fixed;imageAspect=0;image=data:image/png,iVBORw0KGgoAAAANSUhEUgAAAMgAAADICAYAAACtWK6eAAANHUlEQVR4Xu2dX4gd1R3Hf2d2WWrELsX2oV4bqDTQlICF1daHEg2EvNhARVdrDSpLrZTVO2c2i0kRYSultttm7+/ukiwNSvNg6B8VbKEPIv6rD1L7UCPoW0Va7FOr2wQaskvmlBPvTXaT3XvunDsz98z8vgNLAmd+Z87v85sP8/eeUYQFBEBgSwIKbEAABLYmAEGwd4BADwIQBLsHCEAQ7AMg4EcARxA/bogSQgCCCCk00vQjAEH8uCFKCAEIIqTQSNOPAATx44YoIQQgiJBCI00/AhDEjxuihBCAIEIKjTT9CEAQP26IEkIAgggpNNL0IwBB/LghSggBCCKk0EjTjwAE8eOGKCEEIIiQQiNNPwIQxI8booQQgCBCCo00/QhAED9uiBJCAIIIKTTS9CMAQfy4IUoIAQgipNBI048ABPHjhighBCCIkEIjTT8CEMSPG6KEEIAgQgqNNP0IQBA/bogSQgCCCCk00vQjAEH8uCFKCAEIIqTQSNOPAATx44YoIQQgiJBCI00/AhDEjxuihBCAIEIKjTT9CEAQP26IEkIAgggpNNL0IwBB/LghSggBCCKk0EjTjwAE8eOGKCEEIIiQQiNNPwIQxI8booQQgCBCCo00/QhAED9uiBJCAIIIKTTS9CMAQfy4IUoIAQgipNBI048ABPHjhighBCCIkEIjTT8CEMSPG6KEEIAgQgqNNP0IQBA/bogSQgCCCCk00vQjAEH8uCFKCAEIIqTQSNOPAATx4+YdNTs7e/Xq6up1URQ10jTdFkXRNiK6qvPX/f9bzPy690YQmBsBCJIbyis70lrfRkR3EVGDiK7v/PvFPja5B4L0QamEVSBIDpCbzeZEFEUTRDTBzA93u+wI8prHJiCIB7QiQiCIB9WuEEqpm4wx3yCiG7vdMPNFphDEA25gIRCkj4JMT09fOzo6eo9SajcR3UxEN2wVBkH6AFqhVSBIj2LNzMzckqbpPURk//q5diAIUqG9v4+hQpDLIM3NzY2trKx0pbi9D4YbVoEgWYmFvT4E6dSn2WzuUkrZ0ygrxw7fskEQX3JhxokXpNlsbh8ZGdHGmCSPEoUqSJIkDWOMt/h5sLF9pGl6Zm1t7YPl5eVP8uqzyH7ECjI5OTnSaDSsFLrzfCIXziEKorVeJKJHc0kwp06UUs+1Wq27c+qusG5ECqK1vpeIrBz2jlSuS2iCaK3tcxj7wDLE5SFmfjrEgXXHJEqQJEluNcbYI8Z3iipKToKciKKIFxYWTg0yTq21vfP2r0H6KDj2XWa++Ayp4G15dS9GkDiOn1JKHfailCEoJ0EubNEY80KaplNLS0unMwzh4qoDPKj02ZxXzHpeXh0UHFR7Qaampq4ZHx8/Zow5UDDLC93nKUhnvG8S0f3M/GHW8eMIkpXYlevXWhCt9U4i+j0R7RocVX89FCCI3fA7RGTfz1rpbxSX1sI1SFZiG9evrSBJkuwzxrw0GJ7s0QUJ0jk4sdetaNzFyl7HbkQtBdFaP0lET/hj8Y8sUBA7qDuY+UWf0eE5iA81otoJEsfxq0qpPX44Bo8qWJC3mfmbg48SPfRLoFaCaK3/SET7+02+iPUKFsQ+id67uLj4ShFjR581vkjXWj9LRPcNu8hFC0JER5n5kWHnKWX7tTiCaK2PENFMCEUrQZCPxsbGds7Pz58JId+6j6HygmitHyOin4dSqBIEsakeYOaToeRc53FUWpAkSR4wxpwIqUAlCXKSmUt58BkS22GMpbKCdH6/8Wel1OeGAW6rbZYkyMdKqR2tVuvjkHKv41gqK4jW+redn8IGVZeSBMFpVklVr6QgWuspInqmJEaZNlOiIDjNylQZv5UrJ8jMzMyXjDFvGGO+7JdysVElCvJ3Zv5Ksdmg98oJorX+FRH9INTSlSgIRVG0fWFh4Z+hsqjDuColSBzHdyqlng8ZfJmCENG3mflPIfOo+tgqJYjW+i9EZGcyDHYpUxBjzOPtdvunwcKowcAqI0gcx7uVUm+EzrxMQYjod8z83dCZVHl8lRFEa/0LIpoNHXbJgpxi5q+HzqTK46uSIHbygb6m/xxmQUoW5DQzjw8z37pvuxKCJEmy3xhjX2UPfilZEFpbW/v80aNH/xM8mIoOsBKCxHH8vFLqziowLlsQ+/mFdrv91yqwqeIYgxfk0KFD4+fOncs8WcGwilG2IHYu4VarZSemwFIAgeAFqdLpla1P2YIYYw632+1gXvcvYB8dapfBC6K1/iERHRsqpQwbH4IgP2u32z/KMESsmoFAFQT5CRE9niGnoa5atiBKqcVWqxUPNekab7wKgvyaiB6sSg3KFsQY80y73f5+Lz5xHNuZUB5USn01AI5nlFLvR1H0yyNHjvw7gPH0HEIVBHmZiPaGDrI7vrIFIaLfMPP3tuKTJElijFkIjZ8x5m9nz5791vHjx/8X2tjWj6cKgrxPRHYK0UosQxDkD8y86Wz1c3Nzn1lZWfkHEX0hUHhzzPzjQMd2YVhVEOS/RPTZkCGuH9sQBHmZmfdtxufgwYNfO3/+/HsBs3uPmUubN9mHAwTxodYjBoJkAgpBMuHaZGWtNU6xekPEKdagO1mP+CocQXCR3nsHwEW6cEFwm7fHDoDbvAXaUZGLdDwo7HUKgAeFhRpShVMsvGrS+wiCV00KVCR4QfCyYu/q42XFAu2owikWXnfvvQPgdXfhgtj08YOprXcC/GAKglCVTrPKflCIn9xCkAsEtNaYtOHKfQGTNhTrR/jvYnXzx7Q/m+4JmPYHgnxKABPHbbonYOI4CHKJAKYe3bg3YOrRgu2owm3e9QgwefUVOwQmry7YkeAfFF6ePz5/cIkIPn9QsB1VO4JYHPiAzsWdAh/QKd6P6tzFWs8Cn2C7QAOfYIMgWxPARzzxrfQS/KjmEcSCwWeg8RloCOIgkCTJA8aYE2WA6ncbJb1qgtOrfgsy4HqVu4u1yV2tx4gomLlpSxLkADOfHLD2CO+DQOUFsTlqrY/YG1x95Fv4KiUI8tHY2NjO+fn5M4Ungw1U9xpkkyPJs0R037BrWoIgR5n5kWHnKWX7tTiCdIultbZfodo/zOIVLUiapnsXFxdfGWaOkrZdK0Fs4eI4flUptWdYRSxYkLeZ2U5EjaUkArUTpHNN8iQRPVESww2bKViQO5j5RZ+8kiRpGGN2+MTmGZOm6Zm1tbUPlpeXP8mz36L6qqUgFlaSJPuMMS8VBW6rfgsUhJk58clHa71IRI/6xBYVo5R6rtVq3V1U/3n1W1tBOkcSOyu8/X5faRMkFyTIO0S0h5kzf6tRa/0aEd2W1w6Tcz8PMfPTOfeZa3e1FsSSmpqaumZ8fPyYMeZAruS26KwAQd4kovuZ+cOs49da2+/K258qh7q8y8w3hjo4O67aC9KFH8fxU0qpw0UXI09BjDEvpGk6tbS0dNpn3Fpre+SwR5Bgl/W8QhykGEE61yW3GmM0EW36wZk8CpSTICeiKOKFhYVTg4wJR5BB6H0aK0qQLi6t9b32Op6Ibh4c4cYechLEXm+8nsfYcA0yGEWRglhkk5OTI41Gw0pijyiNwTBeig5NEDsy3MXyr65YQbrIms3m9pGREW2M8bqFejn6EAXpnF7iOYiHJ+IFWSfKLjvPrf0jIu8HaqEK4rFvIETqNUivys/NzY2trKxYSezf7Vn3EgiSlVjY6+MI0qM+MzMzt6Rp2pXFPlNwLhDEiahSK0CQPso1PT197ejoqD392t2583XDVmEQpA+gFVoFgngUq9lsTkRRNKGUusl+foCILj4NhiAeQAMOgSA5FKcrDBFNMPPD3S4HeJKd23OQHNIT3QUEKbD8HUHu6jxnub7zbz/XMhCkwLpk6RqCZKGVw7qzs7NXr66uXhdFUSNN021RFG0joqs6f93/v5XXk/Qchiy6CwgiuvxI3kUAgrgIoV00AQgiuvxI3kUAgrgIoV00AQgiuvxI3kUAgrgIoV00AQgiuvxI3kUAgrgIoV00AQgiuvxI3kUAgrgIoV00AQgiuvxI3kUAgrgIoV00AQgiuvxI3kUAgrgIoV00AQgiuvxI3kUAgrgIoV00AQgiuvxI3kUAgrgIoV00AQgiuvxI3kUAgrgIoV00AQgiuvxI3kUAgrgIoV00AQgiuvxI3kUAgrgIoV00AQgiuvxI3kUAgrgIoV00AQgiuvxI3kUAgrgIoV00AQgiuvxI3kUAgrgIoV00AQgiuvxI3kUAgrgIoV00AQgiuvxI3kUAgrgIoV00AQgiuvxI3kUAgrgIoV00AQgiuvxI3kUAgrgIoV00AQgiuvxI3kUAgrgIoV00AQgiuvxI3kUAgrgIoV00AQgiuvxI3kUAgrgIoV00AQgiuvxI3kUAgrgIoV00AQgiuvxI3kUAgrgIoV00AQgiuvxI3kUAgrgIoV00AQgiuvxI3kUAgrgIoV00AQgiuvxI3kUAgrgIoV00AQgiuvxI3kUAgrgIoV00AQgiuvxI3kXg/2bHXwU/k4RmAAAAAElFTkSuQmCC;rotation=90;" vertex="1" parent="1">
          <mxGeometry x="165" y="90" width="110" height="110" as="geometry" />
        </mxCell>
        <mxCell id="1OxxOTyWAvwLGVjvytnG-3" value="&lt;font face=&quot;Times New Roman&quot;&gt;Light&lt;/font&gt;" style="text;html=1;strokeColor=none;fillColor=none;align=center;verticalAlign=middle;whiteSpace=wrap;rounded=0;" vertex="1" parent="1">
          <mxGeometry x="200" y="90" width="40" height="20" as="geometry" />
        </mxCell>
        <mxCell id="1OxxOTyWAvwLGVjvytnG-4" value="" style="shape=image;verticalLabelPosition=bottom;labelBackgroundColor=#ffffff;verticalAlign=top;aspect=fixed;imageAspect=0;image=data:image/png,iVBORw0KGgoAAAANSUhEUgAAAMgAAADICAYAAACtWK6eAAAH3klEQVR4Xu3dMY4dxxWF4RouQ0oMOJMSAwIciwvwHqREgQKxH7gAeQXESxwokp0qUaJcXIgCBdoG8YyxBQkmTU1Vgeeih/cbYCJWnen73/q7qvs9gHfDDwIIvJXAHTYIIPB2AgSxOhD4AwIEsTwQIIg1gMAeATvIHjezmhAgSJNGK3OPAEH2uJnVhABBmjRamXsECLLHzawmBAjSpNHK3CNAkD1uZjUhQJAmjVbmHgGC7HEzqwkBgjRptDL3CBBkj5tZTQgQpEmjlblHgCB73MxqQoAgTRqtzD0CBNnjZlYTAgRp0mhl7hEgyB43s5oQIEiTRitzjwBB9riZ1YQAQZo0Wpl7BAiyx82sJgQI0qTRytwjQJA9bmY1IUCQJo1W5h4BguxxM6sJAYI0abQy9wgQZI+bWU0IEKRJo5W5R4Age9zMakKAIE0arcw9AgTZ42ZWEwKPWpDjOL4eY3zy6+8HTXr22Mt8er1eXz6WIh6lIM+fP//o1atX340xPn4soF3nbwQIkl4Mx3Hc0n9DfowAQWJoxxjHcXwzxvgi+TdkRwkQJIn32bNnP93d3f05+TdkRwkQJIX3crl8eLvdfknlyy0hQJAU5uM4Ph1j/JjKl1tCgCApzARJkS3NJUgKN0FSZEtzCZLCTZAU2dJcgqRwEyRFtjSXICncBEmRLc0lSAo3QVJkS3MJksJNkBTZ0lyCpHATJEW2NJcgKdwESZEtzSVICjdBUmRLcwmSwk2QFNnSXIKkcBMkRbY0lyAp3ARJkS3NJUgKN0FSZEtzCZLCTZAU2dJcgqRwEyRFtjSXICncBEmRLc0lSAo3QVJkS3MJksJNkBTZ0lyCpHATJEW2NJcgKdwESZEtzSVICjdBUmRLcwmSwk2QFNnSXIKkcBMkRbY0lyAp3ARJkS3NJUgKN0FSZEtzCZLCTZAU2dJcgqRwEyRFtjSXICncBEmRLc0lSAo3QVJkS3MJksJNkBTZ0lyCpHATJEW2NJcgKdwESZEtzSVICjdBUmRLcwmSwk2QFNnSXIKkcBMkRbY0lyAp3ARJkS3NJUgKN0FSZEtzCZLCTZAU2dJcgqRwEyRFtjSXICncBEmRLc0lSAo3QVJkS3MJksJNkBTZ0lyCpHATJEW2NJcgKdwESZEtzSVICjdBUmRLcwmSwk2QFNnSXIKkcBMkRbY0lyAp3ARJkS3NJUgKN0FSZEtzCZLCTZAU2dJcgqRwEyRFtjSXICncBEmRLc0lSAo3QVJkS3MJksJNkBTZ0lyCpHATJEW2NJcgKdwESZEtzSVICjdBUmRLcwmSwk2QFNnSXIKkcBMkRbY0lyAp3ARJkS3NJUgKN0FSZEtzCZLCTZAU2dJcgqRwEyRFtjSXICncBEmRLc0lSAo3QVJkS3MJksJNkBTZ0lyCpHATJEW2NJcgKdwESZEtzSVICjdBUmRLcwmSwk2QFNnSXIKkcBMkRbY0lyAp3ARJkS3NJUgKN0FSZEtzCbKD+3K5fHi73b4aY/z1gfmf7uSbcxoCL2eu5Hq9Pp0Zlx5zl/4Ds/mXy+XL2+32j9nxxr3XBF4S5LX+Hsfx9Rjj7+912xU3S4Agr5MiyOzaaTGOIARpsdB3iyQIQXbXTot5BCFIi4W+WyRBCLK7dlrMIwhBWiz03SIJQpDdtdNiHkEI0mKh7xZJEILsrp0W8/55vV4/P0Olp/mqya8fFKa+ZzWTO/UdoXfYtJlr+nmMcf9b+TNzXUlW99n/ul6v1XX/X8anESS1Ao7j+HGMMdP0/1zCkydP/vbixYsfUtdzn7vzreTr9Rrv1RlZJfswkx2HPnMRyTGrTR9jxM+/O4KMMeJfEz8jq+TamMkmyJuUCDKzcv47Js5q/lIyIwlCkN8I2EHeXAwEIQhB/mDzIQhBCEKQ+bdYFedqD+mZ54VEqh3EDmIHsYPYQWburh7SPaTPrJP4q0tHrJk2nGOMI5YjliOWI5Yj1sz92BHLEWtmnThizVDySfo8pTOPPONd0TPImVfM/16bZxDPIJ5BPIN4Bpm5Z59xt5257uQYO4gdxA5iB7GDzNxl7SDeYs2sE2+xZih5izVP6cwjz3hX9BbrzCvGW6yHumMHeYjQ7/8eZzV/KZmRHtI9pHtI95DuIX3m/nrG4+jMdSfH2EHsIHYQO4gdZOYuawfxmndmncQfPL3FmmnDOcY4YjliOWI5YjlizdyPHbEcsWbWiSPWDCWfpM9TOvPIM94VPYOcecX4JP2h7thBHiLkk/R5QmcfaQeZ79AZWc1ffWakt1jeYnmL1fwt1l/GGN+PMf40eY+JH7Hur+M4jm/HGJ9NXtP9sIr/H+SUrBYYvfOh7/0O8s6JCWxFgCCt2q3YVQIEWSVmfCsCBGnVbsWuEiDIKjHjWxEgSKt2K3aVAEFWiRnfigBBWrVbsasECLJKzPhWBAjSqt2KXSVAkFVixrciQJBW7VbsKgGCrBIzvhUBgrRqt2JXCRBklZjxrQgQpFW7FbtKgCCrxIxvRYAgrdqt2FUCBFklZnwrAgRp1W7FrhIgyCox41sRIEirdit2lQBBVokZ34oAQVq1W7GrBAiySsz4VgQI0qrdil0lQJBVYsa3IkCQVu1W7CoBgqwSM74VAYK0ardiVwkQZJWY8a0IEKRVuxW7SoAgq8SMb0WAIK3ardhVAgRZJWZ8KwIEadVuxa4S+DdwiuT29z7xsgAAAABJRU5ErkJggg==;" vertex="1" parent="1">
          <mxGeometry x="185" y="240" width="70" height="70" as="geometry" />
        </mxCell>
        <mxCell id="1OxxOTyWAvwLGVjvytnG-5" value="&lt;font face=&quot;Times New Roman&quot;&gt;Sensor&lt;/font&gt;" style="text;html=1;strokeColor=none;fillColor=none;align=center;verticalAlign=middle;whiteSpace=wrap;rounded=0;" vertex="1" parent="1">
          <mxGeometry x="200" y="300" width="40" height="20" as="geometry" />
        </mxCell>
        <mxCell id="1OxxOTyWAvwLGVjvytnG-6" value="&lt;font face=&quot;Times New Roman&quot; style=&quot;font-size: 14px&quot;&gt;Tissue&lt;/font&gt;" style="rounded=1;whiteSpace=wrap;html=1;" vertex="1" parent="1">
          <mxGeometry x="330" y="190" width="160" height="50" as="geometry" />
        </mxCell>
        <mxCell id="1OxxOTyWAvwLGVjvytnG-7" value="" style="shape=image;verticalLabelPosition=bottom;labelBackgroundColor=#ffffff;verticalAlign=top;aspect=fixed;imageAspect=0;image=data:image/png,iVBORw0KGgoAAAANSUhEUgAAAMgAAADICAYAAACtWK6eAAANHUlEQVR4Xu2dX4gd1R3Hf2d2WWrELsX2oV4bqDTQlICF1daHEg2EvNhARVdrDSpLrZTVO2c2i0kRYSultttm7+/ukiwNSvNg6B8VbKEPIv6rD1L7UCPoW0Va7FOr2wQaskvmlBPvTXaT3XvunDsz98z8vgNLAmd+Z87v85sP8/eeUYQFBEBgSwIKbEAABLYmAEGwd4BADwIQBLsHCEAQ7AMg4EcARxA/bogSQgCCCCk00vQjAEH8uCFKCAEIIqTQSNOPAATx44YoIQQgiJBCI00/AhDEjxuihBCAIEIKjTT9CEAQP26IEkIAgggpNNL0IwBB/LghSggBCCKk0EjTjwAE8eOGKCEEIIiQQiNNPwIQxI8booQQgCBCCo00/QhAED9uiBJCAIIIKTTS9CMAQfy4IUoIAQgipNBI048ABPHjhighBCCIkEIjTT8CEMSPG6KEEIAgQgqNNP0IQBA/bogSQgCCCCk00vQjAEH8uCFKCAEIIqTQSNOPAATx44YoIQQgiJBCI00/AhDEjxuihBCAIEIKjTT9CEAQP26IEkIAgggpNNL0IwBB/LghSggBCCKk0EjTjwAE8eOGKCEEIIiQQiNNPwIQxI8booQQgCBCCo00/QhAED9uiBJCAIIIKTTS9CMAQfy4IUoIAQgipNBI048ABPHjhighBCCIkEIjTT8CEMSPG6KEEIAgQgqNNP0IQBA/bogSQgCCCCk00vQjAEH8uCFKCAEIIqTQSNOPAATx4+YdNTs7e/Xq6up1URQ10jTdFkXRNiK6qvPX/f9bzPy690YQmBsBCJIbyis70lrfRkR3EVGDiK7v/PvFPja5B4L0QamEVSBIDpCbzeZEFEUTRDTBzA93u+wI8prHJiCIB7QiQiCIB9WuEEqpm4wx3yCiG7vdMPNFphDEA25gIRCkj4JMT09fOzo6eo9SajcR3UxEN2wVBkH6AFqhVSBIj2LNzMzckqbpPURk//q5diAIUqG9v4+hQpDLIM3NzY2trKx0pbi9D4YbVoEgWYmFvT4E6dSn2WzuUkrZ0ygrxw7fskEQX3JhxokXpNlsbh8ZGdHGmCSPEoUqSJIkDWOMt/h5sLF9pGl6Zm1t7YPl5eVP8uqzyH7ECjI5OTnSaDSsFLrzfCIXziEKorVeJKJHc0kwp06UUs+1Wq27c+qusG5ECqK1vpeIrBz2jlSuS2iCaK3tcxj7wDLE5SFmfjrEgXXHJEqQJEluNcbYI8Z3iipKToKciKKIFxYWTg0yTq21vfP2r0H6KDj2XWa++Ayp4G15dS9GkDiOn1JKHfailCEoJ0EubNEY80KaplNLS0unMwzh4qoDPKj02ZxXzHpeXh0UHFR7Qaampq4ZHx8/Zow5UDDLC93nKUhnvG8S0f3M/GHW8eMIkpXYlevXWhCt9U4i+j0R7RocVX89FCCI3fA7RGTfz1rpbxSX1sI1SFZiG9evrSBJkuwzxrw0GJ7s0QUJ0jk4sdetaNzFyl7HbkQtBdFaP0lET/hj8Y8sUBA7qDuY+UWf0eE5iA81otoJEsfxq0qpPX44Bo8qWJC3mfmbg48SPfRLoFaCaK3/SET7+02+iPUKFsQ+id67uLj4ShFjR581vkjXWj9LRPcNu8hFC0JER5n5kWHnKWX7tTiCaK2PENFMCEUrQZCPxsbGds7Pz58JId+6j6HygmitHyOin4dSqBIEsakeYOaToeRc53FUWpAkSR4wxpwIqUAlCXKSmUt58BkS22GMpbKCdH6/8Wel1OeGAW6rbZYkyMdKqR2tVuvjkHKv41gqK4jW+redn8IGVZeSBMFpVklVr6QgWuspInqmJEaZNlOiIDjNylQZv5UrJ8jMzMyXjDFvGGO+7JdysVElCvJ3Zv5Ksdmg98oJorX+FRH9INTSlSgIRVG0fWFh4Z+hsqjDuColSBzHdyqlng8ZfJmCENG3mflPIfOo+tgqJYjW+i9EZGcyDHYpUxBjzOPtdvunwcKowcAqI0gcx7uVUm+EzrxMQYjod8z83dCZVHl8lRFEa/0LIpoNHXbJgpxi5q+HzqTK46uSIHbygb6m/xxmQUoW5DQzjw8z37pvuxKCJEmy3xhjX2UPfilZEFpbW/v80aNH/xM8mIoOsBKCxHH8vFLqziowLlsQ+/mFdrv91yqwqeIYgxfk0KFD4+fOncs8WcGwilG2IHYu4VarZSemwFIAgeAFqdLpla1P2YIYYw632+1gXvcvYB8dapfBC6K1/iERHRsqpQwbH4IgP2u32z/KMESsmoFAFQT5CRE9niGnoa5atiBKqcVWqxUPNekab7wKgvyaiB6sSg3KFsQY80y73f5+Lz5xHNuZUB5USn01AI5nlFLvR1H0yyNHjvw7gPH0HEIVBHmZiPaGDrI7vrIFIaLfMPP3tuKTJElijFkIjZ8x5m9nz5791vHjx/8X2tjWj6cKgrxPRHYK0UosQxDkD8y86Wz1c3Nzn1lZWfkHEX0hUHhzzPzjQMd2YVhVEOS/RPTZkCGuH9sQBHmZmfdtxufgwYNfO3/+/HsBs3uPmUubN9mHAwTxodYjBoJkAgpBMuHaZGWtNU6xekPEKdagO1mP+CocQXCR3nsHwEW6cEFwm7fHDoDbvAXaUZGLdDwo7HUKgAeFhRpShVMsvGrS+wiCV00KVCR4QfCyYu/q42XFAu2owikWXnfvvQPgdXfhgtj08YOprXcC/GAKglCVTrPKflCIn9xCkAsEtNaYtOHKfQGTNhTrR/jvYnXzx7Q/m+4JmPYHgnxKABPHbbonYOI4CHKJAKYe3bg3YOrRgu2owm3e9QgwefUVOwQmry7YkeAfFF6ePz5/cIkIPn9QsB1VO4JYHPiAzsWdAh/QKd6P6tzFWs8Cn2C7QAOfYIMgWxPARzzxrfQS/KjmEcSCwWeg8RloCOIgkCTJA8aYE2WA6ncbJb1qgtOrfgsy4HqVu4u1yV2tx4gomLlpSxLkADOfHLD2CO+DQOUFsTlqrY/YG1x95Fv4KiUI8tHY2NjO+fn5M4Ungw1U9xpkkyPJs0R037BrWoIgR5n5kWHnKWX7tTiCdIultbZfodo/zOIVLUiapnsXFxdfGWaOkrZdK0Fs4eI4flUptWdYRSxYkLeZ2U5EjaUkArUTpHNN8iQRPVESww2bKViQO5j5RZ+8kiRpGGN2+MTmGZOm6Zm1tbUPlpeXP8mz36L6qqUgFlaSJPuMMS8VBW6rfgsUhJk58clHa71IRI/6xBYVo5R6rtVq3V1U/3n1W1tBOkcSOyu8/X5faRMkFyTIO0S0h5kzf6tRa/0aEd2W1w6Tcz8PMfPTOfeZa3e1FsSSmpqaumZ8fPyYMeZAruS26KwAQd4kovuZ+cOs49da2+/K258qh7q8y8w3hjo4O67aC9KFH8fxU0qpw0UXI09BjDEvpGk6tbS0dNpn3Fpre+SwR5Bgl/W8QhykGEE61yW3GmM0EW36wZk8CpSTICeiKOKFhYVTg4wJR5BB6H0aK0qQLi6t9b32Op6Ibh4c4cYechLEXm+8nsfYcA0yGEWRglhkk5OTI41Gw0pijyiNwTBeig5NEDsy3MXyr65YQbrIms3m9pGREW2M8bqFejn6EAXpnF7iOYiHJ+IFWSfKLjvPrf0jIu8HaqEK4rFvIETqNUivys/NzY2trKxYSezf7Vn3EgiSlVjY6+MI0qM+MzMzt6Rp2pXFPlNwLhDEiahSK0CQPso1PT197ejoqD392t2583XDVmEQpA+gFVoFgngUq9lsTkRRNKGUusl+foCILj4NhiAeQAMOgSA5FKcrDBFNMPPD3S4HeJKd23OQHNIT3QUEKbD8HUHu6jxnub7zbz/XMhCkwLpk6RqCZKGVw7qzs7NXr66uXhdFUSNN021RFG0joqs6f93/v5XXk/Qchiy6CwgiuvxI3kUAgrgIoV00AQgiuvxI3kUAgrgIoV00AQgiuvxI3kUAgrgIoV00AQgiuvxI3kUAgrgIoV00AQgiuvxI3kUAgrgIoV00AQgiuvxI3kUAgrgIoV00AQgiuvxI3kUAgrgIoV00AQgiuvxI3kUAgrgIoV00AQgiuvxI3kUAgrgIoV00AQgiuvxI3kUAgrgIoV00AQgiuvxI3kUAgrgIoV00AQgiuvxI3kUAgrgIoV00AQgiuvxI3kUAgrgIoV00AQgiuvxI3kUAgrgIoV00AQgiuvxI3kUAgrgIoV00AQgiuvxI3kUAgrgIoV00AQgiuvxI3kUAgrgIoV00AQgiuvxI3kUAgrgIoV00AQgiuvxI3kUAgrgIoV00AQgiuvxI3kUAgrgIoV00AQgiuvxI3kUAgrgIoV00AQgiuvxI3kUAgrgIoV00AQgiuvxI3kUAgrgIoV00AQgiuvxI3kUAgrgIoV00AQgiuvxI3kUAgrgIoV00AQgiuvxI3kUAgrgIoV00AQgiuvxI3kUAgrgIoV00AQgiuvxI3kUAgrgIoV00AQgiuvxI3kXg/2bHXwU/k4RmAAAAAElFTkSuQmCC;rotation=53;" vertex="1" parent="1">
          <mxGeometry x="300" y="90" width="110" height="110" as="geometry" />
        </mxCell>
        <mxCell id="1OxxOTyWAvwLGVjvytnG-8" value="&lt;font face=&quot;Times New Roman&quot;&gt;Light&lt;/font&gt;" style="text;html=1;strokeColor=none;fillColor=none;align=center;verticalAlign=middle;whiteSpace=wrap;rounded=0;" vertex="1" parent="1">
          <mxGeometry x="320" y="90" width="40" height="20" as="geometry" />
        </mxCell>
        <mxCell id="1OxxOTyWAvwLGVjvytnG-9" value="" style="shape=image;verticalLabelPosition=bottom;labelBackgroundColor=#ffffff;verticalAlign=top;aspect=fixed;imageAspect=0;image=data:image/png,iVBORw0KGgoAAAANSUhEUgAAAMgAAADICAYAAACtWK6eAAAH3klEQVR4Xu3dMY4dxxWF4RouQ0oMOJMSAwIciwvwHqREgQKxH7gAeQXESxwokp0qUaJcXIgCBdoG8YyxBQkmTU1Vgeeih/cbYCJWnen73/q7qvs9gHfDDwIIvJXAHTYIIPB2AgSxOhD4AwIEsTwQIIg1gMAeATvIHjezmhAgSJNGK3OPAEH2uJnVhABBmjRamXsECLLHzawmBAjSpNHK3CNAkD1uZjUhQJAmjVbmHgGC7HEzqwkBgjRptDL3CBBkj5tZTQgQpEmjlblHgCB73MxqQoAgTRqtzD0CBNnjZlYTAgRp0mhl7hEgyB43s5oQIEiTRitzjwBB9riZ1YQAQZo0Wpl7BAiyx82sJgQI0qTRytwjQJA9bmY1IUCQJo1W5h4BguxxM6sJAYI0abQy9wgQZI+bWU0IEKRJo5W5R4Age9zMakKAIE0arcw9AgTZ42ZWEwKPWpDjOL4eY3zy6+8HTXr22Mt8er1eXz6WIh6lIM+fP//o1atX340xPn4soF3nbwQIkl4Mx3Hc0n9DfowAQWJoxxjHcXwzxvgi+TdkRwkQJIn32bNnP93d3f05+TdkRwkQJIX3crl8eLvdfknlyy0hQJAU5uM4Ph1j/JjKl1tCgCApzARJkS3NJUgKN0FSZEtzCZLCTZAU2dJcgqRwEyRFtjSXICncBEmRLc0lSAo3QVJkS3MJksJNkBTZ0lyCpHATJEW2NJcgKdwESZEtzSVICjdBUmRLcwmSwk2QFNnSXIKkcBMkRbY0lyAp3ARJkS3NJUgKN0FSZEtzCZLCTZAU2dJcgqRwEyRFtjSXICncBEmRLc0lSAo3QVJkS3MJksJNkBTZ0lyCpHATJEW2NJcgKdwESZEtzSVICjdBUmRLcwmSwk2QFNnSXIKkcBMkRbY0lyAp3ARJkS3NJUgKN0FSZEtzCZLCTZAU2dJcgqRwEyRFtjSXICncBEmRLc0lSAo3QVJkS3MJksJNkBTZ0lyCpHATJEW2NJcgKdwESZEtzSVICjdBUmRLcwmSwk2QFNnSXIKkcBMkRbY0lyAp3ARJkS3NJUgKN0FSZEtzCZLCTZAU2dJcgqRwEyRFtjSXICncBEmRLc0lSAo3QVJkS3MJksJNkBTZ0lyCpHATJEW2NJcgKdwESZEtzSVICjdBUmRLcwmSwk2QFNnSXIKkcBMkRbY0lyAp3ARJkS3NJUgKN0FSZEtzCZLCTZAU2dJcgqRwEyRFtjSXICncBEmRLc0lSAo3QVJkS3MJksJNkBTZ0lyCpHATJEW2NJcgKdwESZEtzSVICjdBUmRLcwmSwk2QFNnSXIKkcBMkRbY0lyAp3ARJkS3NJUgKN0FSZEtzCZLCTZAU2dJcgqRwEyRFtjSXICncBEmRLc0lSAo3QVJkS3MJksJNkBTZ0lyCpHATJEW2NJcgKdwESZEtzSVICjdBUmRLcwmSwk2QFNnSXIKkcBMkRbY0lyAp3ARJkS3NJUgKN0FSZEtzCbKD+3K5fHi73b4aY/z1gfmf7uSbcxoCL2eu5Hq9Pp0Zlx5zl/4Ds/mXy+XL2+32j9nxxr3XBF4S5LX+Hsfx9Rjj7+912xU3S4Agr5MiyOzaaTGOIARpsdB3iyQIQXbXTot5BCFIi4W+WyRBCLK7dlrMIwhBWiz03SIJQpDdtdNiHkEI0mKh7xZJEILsrp0W8/55vV4/P0Olp/mqya8fFKa+ZzWTO/UdoXfYtJlr+nmMcf9b+TNzXUlW99n/ul6v1XX/X8anESS1Ao7j+HGMMdP0/1zCkydP/vbixYsfUtdzn7vzreTr9Rrv1RlZJfswkx2HPnMRyTGrTR9jxM+/O4KMMeJfEz8jq+TamMkmyJuUCDKzcv47Js5q/lIyIwlCkN8I2EHeXAwEIQhB/mDzIQhBCEKQ+bdYFedqD+mZ54VEqh3EDmIHsYPYQWburh7SPaTPrJP4q0tHrJk2nGOMI5YjliOWI5Yj1sz92BHLEWtmnThizVDySfo8pTOPPONd0TPImVfM/16bZxDPIJ5BPIN4Bpm5Z59xt5257uQYO4gdxA5iB7GDzNxl7SDeYs2sE2+xZih5izVP6cwjz3hX9BbrzCvGW6yHumMHeYjQ7/8eZzV/KZmRHtI9pHtI95DuIX3m/nrG4+jMdSfH2EHsIHYQO4gdZOYuawfxmndmncQfPL3FmmnDOcY4YjliOWI5YjlizdyPHbEcsWbWiSPWDCWfpM9TOvPIM94VPYOcecX4JP2h7thBHiLkk/R5QmcfaQeZ79AZWc1ffWakt1jeYnmL1fwt1l/GGN+PMf40eY+JH7Hur+M4jm/HGJ9NXtP9sIr/H+SUrBYYvfOh7/0O8s6JCWxFgCCt2q3YVQIEWSVmfCsCBGnVbsWuEiDIKjHjWxEgSKt2K3aVAEFWiRnfigBBWrVbsasECLJKzPhWBAjSqt2KXSVAkFVixrciQJBW7VbsKgGCrBIzvhUBgrRqt2JXCRBklZjxrQgQpFW7FbtKgCCrxIxvRYAgrdqt2FUCBFklZnwrAgRp1W7FrhIgyCox41sRIEirdit2lQBBVokZ34oAQVq1W7GrBAiySsz4VgQI0qrdil0lQJBVYsa3IkCQVu1W7CoBgqwSM74VAYK0ardiVwkQZJWY8a0IEKRVuxW7SoAgq8SMb0WAIK3ardhVAgRZJWZ8KwIEadVuxa4S+DdwiuT29z7xsgAAAABJRU5ErkJggg==;rotation=-180;" vertex="1" parent="1">
          <mxGeometry x="410" y="120" width="70" height="70" as="geometry" />
        </mxCell>
        <mxCell id="1OxxOTyWAvwLGVjvytnG-10" value="&lt;font face=&quot;Times New Roman&quot;&gt;Sensor&lt;/font&gt;" style="text;html=1;strokeColor=none;fillColor=none;align=center;verticalAlign=middle;whiteSpace=wrap;rounded=0;" vertex="1" parent="1">
          <mxGeometry x="425" y="100" width="40" height="20" as="geometry" />
        </mxCell>
      </root>
    </mxGraphModel>
  </diagram>
</mxfile>
